<?xml version="1.0" encoding="UTF-8"?>
<svg id="_x32_" xmlns="http://www.w3.org/2000/svg" version="1.1" viewBox="0 0 800 800">
  <!-- Generator: Adobe Illustrator 29.5.1, SVG Export Plug-In . SVG Version: 2.1.0 Build 141)  -->
  <defs>
    <style>
      .st0 {
        fill: #0e0e0e;
      }
    </style>
  </defs>
  <polygon class="st0" points="342.8 170.9 177 370.4 0 391.9 132.9 218.1 342.8 170.9"/>
  <polygon class="st0" points="629.1 457.2 429.6 623 408.1 800 581.9 667.1 629.1 457.2"/>
  <path class="st0" d="M782.5,208.3c28.4-81,19.8-155.2-7.9-182.9-27.7-27.6-101.9-36.3-182.9-7.9l190.8,190.8h0Z"/>
  <path class="st0" d="M767.4,244.6l-211.9-211.9c-36.3,17.6-72.7,42.9-105.8,77.6-94.9,99.4-243.3,294-243.3,294l172.5,172.5,16.9,16.9s194.7-148.4,294-243.3c34.7-33.1,60-69.5,77.6-105.8h0ZM449.6,350.4c-33.2-33.2-33.2-86.9,0-120.1,33.2-33.2,86.9-33.2,120.1,0,33.2,33.2,33.2,86.9,0,120.1-33.1,33.2-86.9,33.2-120,0h-.1Z"/>
  <path class="st0" d="M298.3,611.3l-18.9-18.9c-21.6,81-127.7,109.1-127.7,109.1,0,0,40.6-49.6,42.8-83.4,2.9-43-13.5-27.1-33.8-18-22.2,9.9-57.5,10.2-57.5,10.2,0,0,16.9-14.6,34.9-50.7,12.4-24.7,40.9-37.8,65.4-42.9l-14.7-14.7c-28.8-21.6-74.3.1-96.3,39-17.7,31.3-49.2,106.5-83.4,108.3,21.6,18,52.1,26.9,89.8,10.8,37.7-16.2,46.7,0,16.2,30.5-19.8,19.8-91.6,44.9-93.4,82.6,41.3-9,125.1,5,185-23.3,68.2-32.3,102.4-95.2,91.6-138.3v-.3Z"/>
</svg>