<?xml version="1.0" encoding="UTF-8"?>
<svg id="Capa_2" data-name="Capa 2" xmlns="http://www.w3.org/2000/svg" viewBox="0 0 497.99 119.19">
  <g id="Layer_1" data-name="Layer 1">
    <g>
      <path d="m294.21,113.77h-20.46l-1.23-16.6c-4.76,10.25-16.6,18.38-31.93,18.38-25.59,0-44.47-20.83-44.47-46.46s18.88-46.46,44.47-46.46c15.34,0,27.18,8.12,31.93,18.37V0h21.69v113.77Zm-50.1-70.63c-15.18,0-26.11,11.82-26.11,25.97s10.96,25.97,26.11,25.97c15.35,0,25.93-11.83,25.93-25.97.02-14.14-10.58-25.97-25.93-25.97Z" fill="#fff"/>
      <path d="m305.14,68.6c0-25.62,19.94-46.46,47.98-46.46s47.63,20.83,47.63,46.46-19.77,46.46-47.63,46.46c-28.05,0-47.98-20.84-47.98-46.46Zm73.91,0c0-14.13-10.76-25.97-25.93-25.97s-26.29,11.83-26.29,25.97,10.95,25.97,26.29,25.97c15.18-.01,25.93-11.84,25.93-25.97Z" fill="#fff"/>
      <path d="m49.34,115.29C20.49,115.29,0,95.82,0,68.51S20.49,21.9,49.34,21.9c17.75,0,31.92,7.34,38.92,21.17l-16.39,9.56c-5.46-8.71-13.66-12.63-22.71-12.63-15.71,0-27.66,10.93-27.66,28.51s11.95,28.51,27.66,28.51c9.05,0,17.24-3.93,22.71-12.63l16.39,9.56c-7,13.66-21.17,21.34-38.92,21.34Z" fill="#fff"/>
      <path d="m460.54,22.63c21.5,0,37.45,12.26,37.45,39.3v51.39h-20.99v-48.7c0-15.95-7.89-23.68-21.33-23.68-14.95,0-25.02,9.07-25.02,27.04v45.34h-20.99V24h19.18l.8,11.23c6.89-8.23,17.8-12.6,30.9-12.6Z" fill="#fff"/>
      <g>
        <circle cx="139.35" cy="106.84" r="12.36" fill="#fff"/>
        <circle cx="177.59" cy="68.59" r="12.36" fill="#fff"/>
        <circle cx="101.11" cy="68.59" r="12.36" fill="#fff"/>
        <circle cx="139.35" cy="30.35" r="12.36" fill="#fff"/>
        <circle cx="112.31" cy="95.64" r="12.36" fill="#fff"/>
        <circle cx="166.39" cy="41.55" r="12.36" fill="#fff"/>
        <circle cx="112.31" cy="41.55" r="12.36" fill="#fff"/>
        <circle cx="166.39" cy="95.64" r="12.36" fill="#fff"/>
      </g>
    </g>
  </g>
</svg>