<?xml version="1.0" encoding="UTF-8"?><svg id="Layer_2" xmlns="http://www.w3.org/2000/svg" viewBox="0 0 758.8 140.75"><defs><style>.cls-1{fill:none;stroke:#000;stroke-miterlimit:10;}.cls-2{fill:#0e0e0e;}</style></defs><g id="Layer_1-2"><g id="Layer_1-3"><path class="cls-2" d="M225.45,117.01h-15.68l-.94-12.72c-3.65,7.85-12.72,14.08-24.47,14.08-19.61,0-34.08-15.96-34.08-35.6s14.47-35.6,34.08-35.6c11.76,0,20.83,6.22,24.47,14.08v-31.42h16.62v87.18ZM187.06,62.88c-11.63,0-20.01,9.06-20.01,19.9s8.4,19.9,20.01,19.9,19.87-9.07,19.87-19.9c.02-10.84-8.11-19.9-19.87-19.9Z"/><path class="cls-2" d="M233.83,82.39c0-19.63,15.28-35.6,36.77-35.6s36.5,15.96,36.5,35.6-15.15,35.6-36.5,35.6-36.77-15.97-36.77-35.6ZM290.47,82.39c0-10.83-8.25-19.9-19.87-19.9s-20.15,9.07-20.15,19.9,8.39,19.9,20.15,19.9c11.63,0,19.87-9.07,19.87-19.9Z"/><path class="cls-2" d="M37.81,118.17C15.7,118.17,0,103.25,0,82.32s15.7-35.72,37.81-35.72c13.6,0,24.46,5.62,29.82,16.22l-12.56,7.33c-4.18-6.67-10.47-9.68-17.4-9.68-12.04,0-21.2,8.38-21.2,21.85s9.16,21.85,21.2,21.85c6.94,0,13.21-3.01,17.4-9.68l12.56,7.33c-5.36,10.47-16.22,16.35-29.82,16.35Z"/><path class="cls-2" d="M352.91,47.16c16.48,0,28.7,9.39,28.7,30.12v39.38h-16.08v-37.32c0-12.22-6.05-18.15-16.35-18.15-11.46,0-19.17,6.95-19.17,20.72v34.74h-16.08V48.21h14.7l.61,8.61c5.28-6.31,13.64-9.66,23.68-9.66h0Z"/><circle class="cls-2" cx="106.78" cy="111.7" r="9.47"/><circle class="cls-2" cx="136.09" cy="82.38" r="9.47"/><circle class="cls-2" cx="77.48" cy="82.38" r="9.47"/><circle class="cls-2" cx="106.78" cy="53.08" r="9.47"/><circle class="cls-2" cx="86.06" cy="103.11" r="9.47"/><circle class="cls-2" cx="127.51" cy="61.66" r="9.47"/><circle class="cls-2" cx="86.06" cy="61.66" r="9.47"/><circle class="cls-2" cx="127.51" cy="103.11" r="9.47"/></g><line class="cls-1" x1="417.14" y1="140.75" x2="417.14" y2="10.25"/><path d="M756.31,104.74c-8.95-22.36-19.4-28.25-19.4-39.4v-13.13h2.19c1.21,0,2.19-.98,2.19-2.19v-4.38c0-1.21-.98-2.19-2.19-2.19h-21.89c-1.21,0-2.19.98-2.19,2.19v4.38c0,1.21.98,2.19,2.19,2.19h2.19v13.13c0,11.15-10.45,17.04-19.4,39.4-2.85,7.11-10.17,17.51,28.16,17.51s31.01-10.4,28.16-17.51ZM749.23,112.4c-3.07.92-9.19,1.97-21.08,1.97s-18.01-1.05-21.08-1.97c-1.09-.32-1.51-1.59-1.13-2.75.96-2.93,2.78-8,6.18-13.66,8.3-13.83,16.91,2.18,24.08,2.18s5.2-6.83,7.98-2.18c2.56,4.31,4.63,8.89,6.18,13.66.39,1.16-.04,2.42-1.13,2.75h0Z"/><circle class="cls-2" cx="728.18" cy="34.17" r="4.75"/><circle class="cls-2" cx="742.89" cy="19.46" r="4.75"/><circle class="cls-2" cx="713.48" cy="19.46" r="4.75"/><circle class="cls-2" cx="728.18" cy="4.75" r="4.75"/><circle class="cls-2" cx="717.78" cy="29.86" r="4.75"/><circle class="cls-2" cx="738.58" cy="9.06" r="4.75"/><circle class="cls-2" cx="717.78" cy="9.06" r="4.75"/><circle class="cls-2" cx="738.58" cy="29.86" r="4.75"/><path d="M453.28,116.74V38.34h9.02v70.07h32.83v8.33h-41.85Z"/><path d="M530.11,118.11c-5.55,0-9.96-.6-13.23-1.81-3.27-1.21-5.62-3.17-7.06-5.88-1.44-2.71-2.16-6.35-2.16-10.93,0-5.03.72-8.95,2.16-11.76,1.44-2.81,3.79-4.77,7.06-5.88,3.27-1.11,7.68-1.67,13.23-1.67h13.43v-3.72c0-3.14-.39-5.64-1.18-7.5-.78-1.86-2.14-3.17-4.07-3.92-1.93-.75-4.66-1.13-8.18-1.13-2.74,0-4.9.28-6.47.83-1.57.56-2.81,1.58-3.72,3.09-.92,1.5-1.73,3.59-2.45,6.27l-8.62-2.16c1.11-4.12,2.5-7.41,4.17-9.9,1.67-2.48,3.87-4.31,6.62-5.49,2.74-1.18,6.24-1.76,10.49-1.76,5.62,0,10.06.77,13.33,2.3,3.27,1.54,5.6,3.9,7.01,7.1,1.4,3.2,2.11,7.29,2.11,12.25v24.01c0,2.48.2,4.3.59,5.44.39,1.14,1.14,1.86,2.25,2.16,1.11.29,2.71.41,4.8.34v8.23c-3.72.2-6.65-.11-8.77-.93-2.12-.82-3.71-2.3-4.75-4.46-1.18,1.7-2.53,3.05-4.07,4.07-1.54,1.01-3.32,1.73-5.34,2.16-2.03.42-4.41.64-7.15.64ZM530.11,109.78c3.53,0,6.25-.44,8.18-1.32,1.93-.88,3.28-2.42,4.07-4.61.78-2.19,1.18-5.21,1.18-9.06v-6.37h-13.43c-3.53,0-6.27.26-8.23.78-1.96.52-3.32,1.57-4.07,3.14-.75,1.57-1.13,3.95-1.13,7.15,0,2.61.38,4.67,1.13,6.17.75,1.5,2.11,2.56,4.07,3.19,1.96.62,4.7.93,8.23.93Z"/><path d="M591.65,118.11c-3.66,0-6.83-.31-9.51-.93-2.68-.62-5.03-1.63-7.06-3.04-2.03-1.4-4.02-3.31-5.98-5.73V38.34h9.02v20.87c1.57-1.57,3.48-2.7,5.73-3.38,2.25-.69,4.85-1.03,7.79-1.03,5.68,0,10.14,1.03,13.38,3.09s5.55,5.42,6.96,10.09c1.4,4.67,2.11,10.86,2.11,18.57s-.7,13.79-2.11,18.42c-1.41,4.64-3.72,7.99-6.96,10.04-3.23,2.06-7.69,3.09-13.38,3.09ZM591.65,109.78c3.4,0,6.08-.7,8.04-2.11,1.96-1.4,3.35-3.79,4.17-7.15.82-3.36,1.23-8.02,1.23-13.96s-.41-10.71-1.23-14.11c-.82-3.4-2.21-5.8-4.17-7.2-1.96-1.4-4.64-2.11-8.04-2.11s-6.27.43-8.23,1.27c-1.96.85-3.33,2.34-4.12,4.46-.78,2.12-1.18,5.18-1.18,9.16v27.54c1.76,1.63,3.59,2.74,5.49,3.33,1.89.59,4.57.88,8.04.88Z"/><path d="M646.83,118.11c-3.46,0-6.39-.38-8.77-1.13-2.39-.75-4.48-2.02-6.27-3.82-1.8-1.8-3.48-4.2-5.05-7.2l7.15-5.78c1.11,2.48,2.21,4.44,3.28,5.88,1.08,1.44,2.37,2.42,3.87,2.94,1.5.52,3.43.78,5.78.78,4.64,0,8.2-.31,10.68-.93,2.48-.62,4.21-1.68,5.19-3.19.98-1.5,1.47-3.53,1.47-6.08s-.41-4.47-1.22-5.78c-.82-1.31-2.29-2.3-4.41-2.99-2.12-.69-5.15-1.26-9.07-1.72-5.03-.65-9.13-1.6-12.3-2.84-3.17-1.24-5.49-2.99-6.96-5.24-1.47-2.25-2.21-5.08-2.21-8.48,0-4.38.77-7.85,2.3-10.44,1.53-2.58,4.03-4.44,7.5-5.59,3.46-1.14,8.1-1.71,13.92-1.71,3.66,0,6.71.33,9.16.98,2.45.65,4.61,1.73,6.47,3.23,1.86,1.5,3.58,3.56,5.14,6.17l-6.57,6.37c-1.24-2.29-2.45-4.03-3.63-5.24-1.18-1.21-2.56-2.04-4.17-2.5-1.6-.46-3.74-.69-6.42-.69-3.86,0-6.86.28-9.02.83-2.16.56-3.64,1.52-4.46,2.89-.82,1.37-1.22,3.27-1.22,5.68s.98,4.3,2.94,5.44c1.96,1.14,5.32,2.04,10.09,2.69,5.75.78,10.31,1.85,13.67,3.19,3.36,1.34,5.78,3.25,7.25,5.73,1.47,2.48,2.2,5.82,2.2,10,0,4.51-.85,8.12-2.55,10.83-1.7,2.71-4.46,4.67-8.28,5.88-3.82,1.21-9,1.81-15.53,1.81Z"/></g></svg>