<?xml version="1.0" encoding="UTF-8"?>
<svg id="Layer_1" xmlns="http://www.w3.org/2000/svg" version="1.1" viewBox="0 0 800 800">
  <!-- Generator: Adobe Illustrator 29.5.1, SVG Export Plug-In . SVG Version: 2.1.0 Build 141)  -->
  <defs>
    <style>
      .st0 {
        fill: #0e0e0e;
      }
    </style>
  </defs>
  <path class="st0" d="M657.3,600c-81.8-204.3-177.3-258.1-177.3-360v-120h20c11,0,20-9,20-20v-40c0-11-9-20-20-20h-200c-11,0-20,9-20,20v40c0,11,9,20,20,20h20v120c0,101.9-95.5,155.7-177.3,360-26,65-92.9,160,257.3,160s283.3-95,257.3-160ZM592.6,670c-28.1,8.4-84,18-192.6,18s-164.5-9.6-192.6-18c-10-3-13.8-14.5-10.3-25.1,8.8-26.8,25.4-73.1,56.4-124.8,75.8-126.4,154.5,19.9,220,19.9s47.5-62.4,73-19.9c23.4,39.4,42.3,81.3,56.4,124.8,3.5,10.6-.4,22.1-10.3,25.1h0Z"/>
</svg>