<?xml version="1.0" encoding="UTF-8"?>
<svg id="Layer_1" xmlns="http://www.w3.org/2000/svg" version="1.1" viewBox="0 0 800 800">
  <!-- Generator: Adobe Illustrator 29.5.1, SVG Export Plug-In . SVG Version: 2.1.0 Build 141)  -->
  <defs>
    <style>
      .st0 {
        fill: #0e0e0e;
      }
    </style>
  </defs>
  <path class="st0" d="M136.3,269.3c-1.7,10-3,20-3,30.7,0-10.3,1.3-20.7,3-30.7ZM133.3,500c0,10.7,1.3,20.7,3,30.7-1.7-10-3-20.3-3-30.7ZM269.7,663.7c9.7,1.7,20,3,30.3,3-10.3,0-20.3-1.3-30.3-3ZM269.7,136.3c10-1.7,20-3,30.3-3-10.3,0-20.7,1.3-30.3,3ZM530.7,136.3c-10-1.7-20-3-30.7-3,10.3,0,20.7,1.3,30.7,3ZM663.7,269.3c1.7,10,3,20.3,3,30.7,0-10.7-1.3-20.7-3-30.7Z"/>
  <path class="st0" d="M733.3,276.7c0,14-11,25-25,25h-41.7v61.2c0,11.1-12.1,18-21.7,12.4-14.3-8.3-31-11-47-6.7-10.3,2.5-22.7-4.2-22.7-14.7v-29.3c0-55-45-100-100-100h-150.7c-55,0-100,45-100,100v150.7c0,55,45,100,100,100h15c3.9,0,7,3.1,7,7,0,32.1,23.3,59.1,53.9,65.3,5.8,1.2,9.7,8.1,7.8,13.6-1.1,3.2-4,5.4-7.4,5.4h-99v41.7c0,13.7-11.3,25-25,25s-25-11.3-25-25v-49c-53.3-16.3-95-58-111-111h-49.3c-13.7,0-25-11.3-25-25s11.3-25,25-25h41.7v-73.3h-41.7c-13.7,0-25-11.3-25-25s11.3-25,25-25h41.7v-73.3h-41.7c-13.7,0-25-11-25-25s11.3-25,25-25h49.3c16-53,57.7-94.7,111-111v-49c0-13.7,11-25,25-25s25,11.3,25,25v41.7h73v-41.7c0-13.7,11.3-25,25-25s25,11.3,25,25v41.7h73.3v-41.7c0-13.7,11.3-25,25-25s25,11.3,25,25v49.3c53,16,94.7,57.7,110.7,110.7h49.3c14,0,25,11.3,25,25h.2Z"/>
  <path class="st0" d="M699.7,517.7c-22.7,0-35.7-11.3-35.7-28s2-14.3,6.7-22.3c9.3-16,3.7-36.7-12.3-45.7l-30.3-17.7c-14-8.3-32-3.3-40.3,10.7l-2,3.3c-16,27.7-42,27.7-58,0l-2-3.3c-8-14-26.3-19-40-10.7l-30.7,17.7c-10.7,6-17,17.3-17,29s1.7,11.3,4.7,16.7c4.7,8,7,15.7,7,22.3,0,16.7-13.3,28-36,28s-33.7,15-33.7,33.3v31.3c0,18.3,15.3,33.3,33.7,33.3s36,11.3,36,28-2.3,14.3-7,22.3c-9.3,16-3.7,36.7,12.3,45.7l30.7,17.7c13.7,8.3,32,3.3,40-10.7l2-3.3c16-27.7,42-27.7,58,0l2,3.3c8.3,14,26.3,19,40.3,10.7l30.3-17.7c10.7-6,17-17.3,17-29s-1.7-11.3-4.7-16.7c-4.7-8-6.7-15.7-6.7-22.3,0-16.7,13-28,35.7-28s33.7-15,33.7-33.3v-31.3c0-18.3-15-33.3-33.7-33.3ZM556.7,624c-31.7,0-57.3-25.7-57.3-57.3s25.7-57.3,57.3-57.3,57.3,25.7,57.3,57.3-25.7,57.3-57.3,57.3Z"/>
  <path class="st0" d="M541.7,334v19.1c0,11.1-14.8,18.2-25.7,15.6-16.7-4.3-33.3-2-47,6.3l-30.3,17.7c-21,11.7-34,34-34,58s0,4,.2,6c1.1,12.9-7.9,28.5-19.6,34-16.1,7.5-28.7,21.3-34.8,38.1-2.6,7.2-8.9,12.9-16.5,12.9-42,0-75.7-33.7-75.7-75.7v-132c0-42,33.7-75.7,75.7-75.7h132c42,0,75.7,33.7,75.7,75.7h0Z"/>
</svg>