<?xml version="1.0" encoding="UTF-8"?>
<svg id="_x32_" xmlns="http://www.w3.org/2000/svg" version="1.1" viewBox="0 0 800 800">
  <!-- Generator: Adobe Illustrator 29.5.1, SVG Export Plug-In . SVG Version: 2.1.0 Build 141)  -->
  <defs>
    <style>
      .st0 {
        fill: #0e0e0e;
      }
    </style>
  </defs>
  <polygon class="st0" points="3 459 3 458.9 3 458.8 3 459"/>
  <path class="st0" d="M15.7,489.2l-.2-.2h0l.2.2Z"/>
  <path class="st0" d="M15.7,349.6l-.2-.2h0l.2.2Z"/>
  <path class="st0" d="M3,319.4h0Z"/>
  <path class="st0" d="M800,319.8c0-3.6-.7-7-1.8-10.3,1.1-3,1.7-6.1,1.7-9,0-4.6-1.3-9.1-3.2-12.7h0c-.6-1.2-1.4-2.3-2.3-3.5v-86.4c3.5-5.1,5.7-11.2,5.7-17.8,0-12.7-7.7-24.1-19.4-28.9L491,30.3h-.8c-6.1-2.1-12.4-3.4-18.8-3.4s-12.5,1.2-18.5,3.3h-.8L27.6,201.2l-1.1.6h0c-5.4,2.9-9.4,6.8-12.2,10.7-4.8,6.7-7.3,13.8-9.1,20.2h0c-2.7,10.1-3.8,20.2-4.5,28.8h0c-.7,8.7-.7,16-.7,19h0v1.7c0,10.5.6,24.1,3,37.2h0c1.3,6.7,3,13.4,6,19.9h0c1.5,3.3,3.5,6.7,6.3,10h0c.2.3.5.5.7.8-.6.7-1.3,1.3-1.8,2-4.9,6.7-7.3,13.8-9.1,20.2h0c-2.7,10.1-3.8,20.2-4.5,28.8h0C0,409.8-.1,417.1-.1,420.1H-.1v1.7c0,10.5.6,24.1,3,37.2h0c1.3,6.7,3,13.4,6,19.9h0c1.5,3.3,3.5,6.7,6.3,10h0c.5.7,1.2,1.2,1.8,1.8-1,1.1-2.1,2.2-2.9,3.3-4.9,6.7-7.3,13.8-9.1,20.2v.2h0c-2.7,10-3.8,20.1-4.5,28.7h0c-.6,8.7-.7,16-.7,19h.2v1.6c0,10.5.6,24.1,3,37.2h0c1.3,6.7,3,13.4,6,19.9h0c1.5,3.3,3.5,6.7,6.3,10l-.2-.2.3.3c2.7,3.1,6.3,6.1,10.8,8.3h0c0,0,.6.5.6.5l312.4,128.9.7.3c6.9,2.8,14.3,4.3,21.7,4.3s14.5-1.4,21.4-4.2l399.9-162.5h0c4.6-1.9,9-4.9,12.3-9.8h0c3.2-4.8,4.4-9.8,4.5-14.6,0-4.6-1.3-9.1-3.2-12.7h0c0,0,0,0,0,0-.6-1.1-1.4-2.2-2.3-3.4v-86.3c3.5-5.1,5.7-11.2,5.7-17.8s-.8-7.8-2.3-11.4c1.4-3.4,2.1-6.8,2.1-10.2s-1.3-9.1-3.2-12.7h0c-.6-1.2-1.4-2.3-2.3-3.5v-86.3c3.5-5.1,5.7-11.2,5.7-17.8v-.2ZM337.9,733l-297.5-122.8-1.1-1.3c-.9-1.4-2.1-4.2-3.1-7.6-1.5-5.1-2.5-11.8-3.1-18.5s-.8-13.5-.8-19.2v-1.3c0-4.4.2-17.1,2-29,.9-6,2.2-11.7,3.8-15.8l.3-.7,299.5,121.5v94.8h0ZM337.9,591.1l-270.7-111.8-26.8-11-1.1-1.3c-.9-1.5-2.1-4.2-3.1-7.6-1.5-5.1-2.5-11.8-3.1-18.5s-.8-13.5-.8-19.2v-1.4c0-4.4.2-17.1,2-29,.9-5.9,2.2-11.7,3.8-15.8l.3-.7,299.5,121.5v94.8h0ZM337.9,364.5v87.1l-273.6-113-23.9-9.8-1.1-1.3c-.9-1.4-2.1-4.2-3.1-7.6-1.5-5.1-2.5-11.8-3.1-18.5s-.8-13.5-.8-19.2v-1.4c0-4.4.2-17.1,2-29,.9-6,2.2-11.7,3.8-15.8l.3-.7,299.5,121.5v7.7h0ZM762.1,580.2l-390,158.4-1,.5c-3,1.2-6.1,1.8-9.3,1.8s-2.3-.2-3.4-.3v-96c1.5.2,3,.3,4.5.3,5.9,0,11.7-1.2,17.2-3.4l.4-.2,381.6-155.7v94.7h0ZM762.1,437.7v.5l-390,158.4-1,.5c-3,1.2-6.1,1.8-9.3,1.8s-2.3-.2-3.4-.3v-96c1.5.2,3,.3,4.5.3,5.9,0,11.7-1.2,17.2-3.4l.4-.2,267.6-109.2,113.9-46.5v94.1h0ZM762.1,295.9v2.9l-390,158.4-1,.5c-3,1.2-6.1,1.8-9.3,1.8s-2.3-.2-3.4-.3v-96c1.5.2,3,.3,4.5.3,5.9,0,11.7-1.1,17.2-3.4l.4-.2,381.6-155.7v91.8h0Z"/>
  <polygon class="st0" points="3 600.9 3 600.8 3 600.8 3 600.9"/>
</svg>