<?xml version="1.0" encoding="UTF-8"?><svg id="Layer_1" xmlns="http://www.w3.org/2000/svg" xmlns:xlink="http://www.w3.org/1999/xlink" viewBox="0 0 2010.95 459"><defs><style>.cls-1,.cls-2{fill:none;}.cls-3{fill:url(#linear-gradient);}.cls-4{fill:#f8faf9;}.cls-5{fill:#fff;}.cls-2{opacity:.1;}</style><linearGradient id="linear-gradient" x1="22.98" y1="229.5" x2="1987.98" y2="229.5" gradientUnits="userSpaceOnUse"><stop offset="0" stop-color="#226bf9"/><stop offset=".5" stop-color="#003cff"/><stop offset="1" stop-color="#226bf9"/></linearGradient></defs><rect class="cls-3" x="22.98" y="3" width="1965" height="453" rx="36.7" ry="36.7"/><g class="cls-2"><path class="cls-1" d="m0,0v456h265.66c.31-.84.64-1.67,1-2.49,2.48-5.75,1.6-12.42-2.82-16.84l-1.43-1.43c-4.15-4.22-10.58-5.68-15.96-3.23-7.01,3.2-14.6,4.8-22.19,4.8-13.75,0-27.39-5.21-37.84-15.65-10.04-10.14-15.62-23.58-15.62-37.94,0-20.08,10.89-38.45,29.91-48.29,7.25-3.78,15.45-5.31,23.58-5.31s15.42,1.7,22.32,4.87c5.38,2.48,11.74,1.02,15.93-3.16l1.57-1.57c4.49-4.46,5.27-11.13,2.79-16.88-10.69-24.4-2.25-55.19,25.18-69.59,7.35-3.85,15.62-5.44,23.85-5.44,7.52,0,14.77,1.53,21.37,4.42,5.99,2.65,13.03,1.12,17.66-3.5,4.63-4.59,6.13-11.64,3.5-17.66-2.89-6.64-4.42-13.92-4.42-21.37,0-15.31,6.33-29.64,17.73-39.92,19.87-17.87,51.08-18.07,71.12-.41,18.1,15.96,22.7,40.97,13.82,61.56-2.59,5.99-1.09,12.97,3.54,17.59,4.59,4.63,11.54,6.16,17.52,3.57,19.53-8.47,43.18-4.73,59.14,11.26,6.5,6.53,11.13,14.43,13.58,23.07,1.4,4.73,2.11,9.7,2.11,14.8,0,14.29-5.55,27.73-15.65,37.87-10.45,10.41-24.13,15.65-37.87,15.65-7.28,0-14.6-1.5-21.37-4.46-6.02-2.62-13.03-1.09-17.66,3.54s-6.16,11.64-3.54,17.66c8.51,19.6,4.76,43.32-11.2,59.31-10.45,10.41-24.13,15.65-37.87,15.65s-27.39-5.21-37.84-15.65c-10.04-10.14-15.62-23.62-15.62-37.94s5.51-27.77,15.62-37.91c15.79-15.79,39-19.6,58.43-11.54,6.16,2.59,13.24.99,17.9-3.71,4.73-4.73,6.3-11.81,3.71-17.97-5.44-13.2-5.38-28.21.14-41.41,2.59-6.09,1.02-13.14-3.61-17.76-4.63-4.7-11.67-6.23-17.73-3.64-6.67,2.82-13.85,4.22-20.83,4.22s-13.99-1.33-20.52-4.08c-6.13-2.52-13.24-.99-17.93,3.71s-6.26,11.88-3.68,18.07c2.65,6.47,4.05,13.37,4.05,20.55,0,20.11-11.03,38.59-30.18,48.39-7.18,3.64-15.28,5.17-23.34,5.17-7.59,0-14.97-1.6-21.71-4.59-5.31-2.38-11.64-.92-15.76,3.23l-1.91,1.91c-4.15,4.15-5.65,10.45-3.3,15.79,6.16,13.82,6.13,29.81-.07,43.69-2.42,5.34-.88,11.64,3.23,15.79l1.7,1.7c4.19,4.12,10.48,5.61,15.86,3.2,6.81-3.03,14.22-4.63,21.88-4.63,8.13,0,16.33,1.6,23.58,5.34,13.3,6.87,22.14,17.59,26.56,29.58h82.59c2.59-7.04,6.7-13.64,12.33-19.27q-10.4,10.4.07-.1c15.76-15.79,0,0-.07.1l.17-.17c15.86-15.86,39.24-19.67,58.7-11.43,5.99,2.52,12.86.95,17.46-3.64l.41-.41c4.63-4.56,6.13-11.54,3.61-17.52-8.68-20.59-3.88-45.56,14.29-61.39l-.1.14c20.38-17.73,52.03-17.01,71.6,1.8,22.05,20.79,22.46,55.64,1.19,76.94-10.45,10.41-24.13,15.65-37.87,15.65-7.35,0-14.6-1.5-21.37-4.46-6.02-2.62-13.03-1.09-17.66,3.54-4.63,4.59-6.16,11.6-3.54,17.63.37.86.71,1.72,1.04,2.6h316.09V0H0Zm91.14,423.59c-22.49,0-40.73-18.31-40.73-40.83s18.27-40.8,40.73-40.8,40.77,18.31,40.77,40.8-18.27,40.83-40.77,40.83Zm162.15-194.92c-7.93,7.96-18.34,11.94-28.79,11.94h-.03c-10.45,0-20.86-3.95-28.82-11.94-7.66-7.72-11.91-17.93-11.91-28.86s4.19-21.17,11.91-28.86,17.93-11.94,28.82-11.94,21.1,4.22,28.82,11.94c15.89,15.93,15.89,41.82,0,57.71Zm153.61-121.28c-22.49,0-40.73-18.21-40.73-40.73s18.24-40.83,40.73-40.83,40.77,18.34,40.77,40.77-18.31,40.8-40.77,40.8Zm212.88,120.73c-7.96,7.96-18.38,11.94-28.82,11.94s-20.86-3.95-28.82-11.94c-7.66-7.72-11.91-17.97-11.91-28.86s4.19-21.13,11.91-28.86c15.89-15.89,41.75-15.89,57.64,0,15.89,15.93,15.89,41.82,0,57.71Zm102.09,195.5c-22.49,0-40.8-18.31-40.8-40.83s18.34-40.83,40.8-40.83,40.77,18.31,40.77,40.83-18.27,40.83-40.77,40.83Z"/><path class="cls-5" d="m461.07,436.63q-10.45,10.47-.07.1c.07-.1,15.82-15.89.07-.1Z"/><path class="cls-5" d="m339.52,426.42c-7.25-3.74-15.45-5.34-23.58-5.34-7.66,0-15.07,1.6-21.88,4.63-5.38,2.42-11.67.92-15.86-3.2l-1.7-1.7c-4.12-4.15-5.65-10.45-3.23-15.79,6.19-13.88,6.23-29.88.07-43.69-2.35-5.34-.85-11.64,3.3-15.79l1.91-1.91c4.12-4.15,10.45-5.61,15.76-3.23,6.74,2.99,14.12,4.59,21.71,4.59,8.06,0,16.16-1.53,23.34-5.17,19.16-9.8,30.18-28.28,30.18-48.39,0-7.18-1.4-14.09-4.05-20.55-2.59-6.19-1.09-13.31,3.68-18.07s11.81-6.23,17.93-3.71c6.53,2.76,13.54,4.08,20.52,4.08s14.16-1.4,20.83-4.22c6.06-2.59,13.1-1.05,17.73,3.64,4.63,4.63,6.19,11.67,3.61,17.76-5.51,13.2-5.58,28.21-.14,41.41,2.59,6.16,1.02,13.24-3.71,17.97-4.66,4.7-11.74,6.3-17.9,3.71-19.43-8.06-42.64-4.25-58.43,11.54-10.11,10.14-15.62,23.58-15.62,37.91s5.58,27.8,15.62,37.94c10.45,10.45,24.09,15.65,37.84,15.65s27.43-5.24,37.87-15.65c15.96-15.99,19.7-39.71,11.2-59.31-2.62-6.02-1.09-13.03,3.54-17.66s11.64-6.16,17.66-3.54c6.77,2.96,14.09,4.46,21.37,4.46,13.75,0,27.43-5.24,37.87-15.65,10.11-10.14,15.65-23.58,15.65-37.87,0-5.1-.71-10.07-2.11-14.8-2.45-8.64-7.08-16.54-13.58-23.07-15.96-15.99-39.61-19.74-59.14-11.26-5.99,2.59-12.93,1.05-17.52-3.57-4.63-4.63-6.13-11.6-3.54-17.59,8.88-20.59,4.29-45.6-13.82-61.56-20.04-17.66-51.25-17.46-71.12.41-11.4,10.28-17.73,24.6-17.73,39.92,0,7.45,1.53,14.73,4.42,21.37,2.62,6.02,1.12,13.07-3.5,17.66-4.63,4.63-11.67,6.16-17.66,3.5-6.6-2.89-13.85-4.42-21.37-4.42-8.23,0-16.5,1.6-23.85,5.44-27.43,14.39-35.87,45.19-25.18,69.59,2.48,5.75,1.7,12.42-2.79,16.88l-1.57,1.57c-4.19,4.19-10.55,5.65-15.93,3.16-6.91-3.16-14.5-4.87-22.32-4.87s-16.33,1.53-23.58,5.31c-19.02,9.83-29.91,28.21-29.91,48.29,0,14.36,5.58,27.8,15.62,37.94,10.45,10.45,24.09,15.65,37.84,15.65,7.59,0,15.18-1.6,22.19-4.8,5.38-2.45,11.81-.99,15.96,3.23l1.43,1.43c4.42,4.42,5.31,11.09,2.82,16.84-.35.82-.68,1.66-1,2.49h100.41c-4.42-11.99-13.26-22.71-26.56-29.58Z"/><path class="cls-5" d="m551.41,435.78c4.63-4.63,11.64-6.16,17.66-3.54,6.77,2.96,14.02,4.46,21.37,4.46,13.75,0,27.43-5.24,37.87-15.65,21.27-21.3,20.86-56.15-1.19-76.94-19.57-18.82-51.21-19.53-71.6-1.8l.1-.14c-18.17,15.82-22.97,40.8-14.29,61.39,2.52,5.99,1.02,12.96-3.61,17.52l-.41.41c-4.59,4.59-11.47,6.16-17.46,3.64-19.46-8.23-42.84-4.42-58.7,11.43l-.17.17c-5.63,5.63-9.74,12.23-12.33,19.27h100.24c-.33-.87-.67-1.74-1.04-2.6-2.62-6.02-1.09-13.03,3.54-17.63Z"/><path class="cls-5" d="m562.13,170.42c-7.72,7.72-11.91,17.97-11.91,28.86s4.25,21.13,11.91,28.86c7.96,8,18.38,11.94,28.82,11.94s20.86-3.98,28.82-11.94c15.89-15.89,15.89-41.79,0-57.71-15.89-15.89-41.75-15.89-57.64,0Z"/><path class="cls-5" d="m224.46,159.02c-10.89,0-21.1,4.25-28.82,11.94s-11.91,17.93-11.91,28.86,4.25,21.13,11.91,28.86c7.96,8,18.38,11.94,28.82,11.94h.03c10.45,0,20.86-3.98,28.79-11.94,15.89-15.89,15.89-41.79,0-57.71-7.72-7.72-17.93-11.94-28.82-11.94Z"/><path class="cls-5" d="m721.87,341.96c-22.46,0-40.8,18.31-40.8,40.83s18.31,40.83,40.8,40.83,40.77-18.31,40.77-40.83-18.27-40.83-40.77-40.83Z"/><path class="cls-5" d="m91.14,341.96c-22.46,0-40.73,18.27-40.73,40.8s18.24,40.83,40.73,40.83,40.77-18.31,40.77-40.83-18.27-40.8-40.77-40.8Z"/><path class="cls-5" d="m406.89,25.83c-22.49,0-40.73,18.31-40.73,40.83s18.24,40.73,40.73,40.73,40.77-18.27,40.77-40.8-18.27-40.77-40.77-40.77Z"/></g><g class="cls-2"><path class="cls-1" d="m1145.95,459V3h265.66c.31.84.64,1.67,1,2.49,2.48,5.75,1.6,12.42-2.82,16.84l-1.43,1.43c-4.15,4.22-10.58,5.68-15.96,3.23-7.01-3.2-14.6-4.8-22.19-4.8-13.75,0-27.39,5.21-37.84,15.65-10.04,10.14-15.62,23.58-15.62,37.94,0,20.08,10.89,38.45,29.91,48.29,7.25,3.78,15.45,5.31,23.58,5.31s15.42-1.7,22.32-4.87c5.38-2.48,11.74-1.02,15.93,3.16l1.57,1.57c4.49,4.46,5.27,11.13,2.79,16.88-10.69,24.4-2.25,55.19,25.18,69.59,7.35,3.85,15.62,5.44,23.85,5.44,7.52,0,14.77-1.53,21.37-4.42,5.99-2.65,13.03-1.12,17.66,3.5,4.63,4.59,6.13,11.64,3.5,17.66-2.89,6.64-4.42,13.92-4.42,21.37,0,15.31,6.33,29.64,17.73,39.92,19.87,17.87,51.08,18.07,71.12.41,18.1-15.96,22.7-40.97,13.82-61.56-2.59-5.99-1.09-12.97,3.54-17.59,4.59-4.63,11.54-6.16,17.52-3.57,19.53,8.47,43.18,4.73,59.14-11.26,6.5-6.53,11.13-14.43,13.58-23.07,1.4-4.73,2.11-9.7,2.11-14.8,0-14.29-5.55-27.73-15.65-37.87-10.45-10.41-24.13-15.65-37.87-15.65-7.28,0-14.6,1.5-21.37,4.46-6.02,2.62-13.03,1.09-17.66-3.54s-6.16-11.64-3.54-17.66c8.51-19.6,4.76-43.32-11.2-59.31-10.45-10.41-24.13-15.65-37.87-15.65s-27.39,5.21-37.84,15.65c-10.04,10.14-15.62,23.62-15.62,37.94s5.51,27.77,15.62,37.91c15.79,15.79,39,19.6,58.43,11.54,6.16-2.59,13.24-.99,17.9,3.71,4.73,4.73,6.3,11.81,3.71,17.97-5.44,13.2-5.38,28.21.14,41.41,2.59,6.09,1.02,13.14-3.61,17.76-4.63,4.7-11.67,6.23-17.73,3.64-6.67-2.82-13.85-4.22-20.83-4.22s-13.99,1.33-20.52,4.08c-6.13,2.52-13.24.99-17.93-3.71s-6.26-11.88-3.68-18.07c2.65-6.47,4.05-13.37,4.05-20.55,0-20.11-11.03-38.59-30.18-48.39-7.18-3.64-15.28-5.17-23.34-5.17-7.59,0-14.97,1.6-21.71,4.59-5.31,2.38-11.64.92-15.76-3.23l-1.91-1.91c-4.15-4.15-5.65-10.45-3.3-15.79,6.16-13.82,6.13-29.81-.07-43.69-2.42-5.34-.88-11.64,3.23-15.79l1.7-1.7c4.19-4.12,10.48-5.61,15.86-3.2,6.81,3.03,14.22,4.63,21.88,4.63,8.13,0,16.33-1.6,23.58-5.34,13.3-6.87,22.14-17.59,26.56-29.58h82.59c2.59,7.04,6.7,13.64,12.33,19.27q-10.4-10.4.07.1c15.76,15.79,0,0-.07-.1l.17.17c15.86,15.86,39.24,19.67,58.7,11.43,5.99-2.52,12.86-.95,17.46,3.64l.41.41c4.63,4.56,6.13,11.54,3.61,17.52-8.68,20.59-3.88,45.56,14.29,61.39l-.1-.14c20.38,17.73,52.03,17.01,71.6-1.8,22.05-20.79,22.46-55.64,1.19-76.94-10.45-10.41-24.13-15.65-37.87-15.65-7.35,0-14.6,1.5-21.37,4.46-6.02,2.62-13.03,1.09-17.66-3.54-4.63-4.59-6.16-11.6-3.54-17.63.37-.86.71-1.72,1.04-2.6h316.09v456h-865Zm91.14-423.59c-22.49,0-40.73,18.31-40.73,40.83s18.27,40.8,40.73,40.8,40.77-18.31,40.77-40.8-18.27-40.83-40.77-40.83Zm162.15,194.92c-7.93-7.96-18.34-11.94-28.79-11.94h-.03c-10.45,0-20.86,3.95-28.82,11.94-7.66,7.72-11.91,17.93-11.91,28.86s4.19,21.17,11.91,28.86,17.93,11.94,28.82,11.94,21.1-4.22,28.82-11.94c15.89-15.93,15.89-41.82,0-57.71Zm153.61,121.28c-22.49,0-40.73,18.21-40.73,40.73s18.24,40.83,40.73,40.83,40.77-18.34,40.77-40.77-18.31-40.8-40.77-40.8Zm212.88-120.73c-7.96-7.96-18.38-11.94-28.82-11.94s-20.86,3.95-28.82,11.94c-7.66,7.72-11.91,17.97-11.91,28.86s4.19,21.13,11.91,28.86c15.89,15.89,41.75,15.89,57.64,0,15.89-15.93,15.89-41.82,0-57.71Zm102.09-195.5c-22.49,0-40.8,18.31-40.8,40.83s18.34,40.83,40.8,40.83,40.77-18.31,40.77-40.83-18.27-40.83-40.77-40.83Z"/><path class="cls-5" d="m1607.02,22.37q-10.45-10.47-.07-.1c.07.1,15.82,15.89.07.1Z"/><path class="cls-5" d="m1485.47,32.58c-7.25,3.74-15.45,5.34-23.58,5.34-7.66,0-15.07-1.6-21.88-4.63-5.38-2.42-11.67-.92-15.86,3.2l-1.7,1.7c-4.12,4.15-5.65,10.45-3.23,15.79,6.19,13.88,6.23,29.88.07,43.69-2.35,5.34-.85,11.64,3.3,15.79l1.91,1.91c4.12,4.15,10.45,5.61,15.76,3.23,6.74-2.99,14.12-4.59,21.71-4.59,8.06,0,16.16,1.53,23.34,5.17,19.16,9.8,30.18,28.28,30.18,48.39,0,7.18-1.4,14.09-4.05,20.55-2.59,6.19-1.09,13.31,3.68,18.07s11.81,6.23,17.93,3.71c6.53-2.76,13.54-4.08,20.52-4.08s14.16,1.4,20.83,4.22c6.06,2.59,13.1,1.05,17.73-3.64,4.63-4.63,6.19-11.67,3.61-17.76-5.51-13.2-5.58-28.21-.14-41.41,2.59-6.16,1.02-13.24-3.71-17.97-4.66-4.7-11.74-6.3-17.9-3.71-19.43,8.06-42.64,4.25-58.43-11.54-10.11-10.14-15.62-23.58-15.62-37.91s5.58-27.8,15.62-37.94c10.45-10.45,24.09-15.65,37.84-15.65s27.43,5.24,37.87,15.65c15.96,15.99,19.7,39.71,11.2,59.31-2.62,6.02-1.09,13.03,3.54,17.66s11.64,6.16,17.66,3.54c6.77-2.96,14.09-4.46,21.37-4.46,13.75,0,27.43,5.24,37.87,15.65,10.11,10.14,15.65,23.58,15.65,37.87,0,5.1-.71,10.07-2.11,14.8-2.45,8.64-7.08,16.54-13.58,23.07-15.96,15.99-39.61,19.74-59.14,11.26-5.99-2.59-12.93-1.05-17.52,3.57-4.63,4.63-6.13,11.6-3.54,17.59,8.88,20.59,4.29,45.6-13.82,61.56-20.04,17.66-51.25,17.46-71.12-.41-11.4-10.28-17.73-24.6-17.73-39.92,0-7.45,1.53-14.73,4.42-21.37,2.62-6.02,1.12-13.07-3.5-17.66-4.63-4.63-11.67-6.16-17.66-3.5-6.6,2.89-13.85,4.42-21.37,4.42-8.23,0-16.5-1.6-23.85-5.44-27.43-14.39-35.87-45.19-25.18-69.59,2.48-5.75,1.7-12.42-2.79-16.88l-1.57-1.57c-4.19-4.19-10.55-5.65-15.93-3.16-6.91,3.16-14.5,4.87-22.32,4.87s-16.33-1.53-23.58-5.31c-19.02-9.83-29.91-28.21-29.91-48.29,0-14.36,5.58-27.8,15.62-37.94,10.45-10.45,24.09-15.65,37.84-15.65,7.59,0,15.18,1.6,22.19,4.8,5.38,2.45,11.81.99,15.96-3.23l1.43-1.43c4.42-4.42,5.31-11.09,2.82-16.84-.35-.82-.68-1.66-1-2.49h100.41c-4.42,11.99-13.26,22.71-26.56,29.58Z"/><path class="cls-5" d="m1697.37,23.22c4.63,4.63,11.64,6.16,17.66,3.54,6.77-2.96,14.02-4.46,21.37-4.46,13.75,0,27.43,5.24,37.87,15.65,21.27,21.3,20.86,56.15-1.19,76.94-19.57,18.82-51.21,19.53-71.6,1.8l.1.14c-18.17-15.82-22.97-40.8-14.29-61.39,2.52-5.99,1.02-12.96-3.61-17.52l-.41-.41c-4.59-4.59-11.47-6.16-17.46-3.64-19.46,8.23-42.84,4.42-58.7-11.43l-.17-.17c-5.63-5.63-9.74-12.23-12.33-19.27h100.24c-.33.87-.67,1.74-1.04,2.6-2.62,6.02-1.09,13.03,3.54,17.63Z"/><path class="cls-5" d="m1708.09,288.58c-7.72-7.72-11.91-17.97-11.91-28.86s4.25-21.13,11.91-28.86c7.96-8,18.38-11.94,28.82-11.94s20.86,3.98,28.82,11.94c15.89,15.89,15.89,41.79,0,57.71-15.89,15.89-41.75,15.89-57.64,0Z"/><path class="cls-5" d="m1370.42,299.98c-10.89,0-21.1-4.25-28.82-11.94s-11.91-17.93-11.91-28.86,4.25-21.13,11.91-28.86c7.96-8,18.38-11.94,28.82-11.94h.03c10.45,0,20.86,3.98,28.79,11.94,15.89,15.89,15.89,41.79,0,57.71-7.72,7.72-17.93,11.94-28.82,11.94Z"/><path class="cls-5" d="m1867.82,117.04c-22.46,0-40.8-18.31-40.8-40.83s18.31-40.83,40.8-40.83,40.77,18.31,40.77,40.83-18.27,40.83-40.77,40.83Z"/><path class="cls-5" d="m1237.09,117.04c-22.46,0-40.73-18.27-40.73-40.8s18.24-40.83,40.73-40.83,40.77,18.31,40.77,40.83-18.27,40.8-40.77,40.8Z"/><path class="cls-5" d="m1552.85,433.17c-22.49,0-40.73-18.31-40.73-40.83s18.24-40.73,40.73-40.73,40.77,18.27,40.77,40.8-18.27,40.77-40.77,40.77Z"/></g><g id="Layer_1-2"><path class="cls-4" d="m1097.3,339.51h-41.55l-2.5-33.71c-9.67,20.82-33.71,37.33-64.84,37.33-51.97,0-90.31-42.3-90.31-94.35s38.34-94.35,90.31-94.35c31.15,0,55.2,16.49,64.84,37.31v-83.26h44.05v231.04Zm-101.74-143.44c-30.83,0-53.02,24-53.02,52.74s22.26,52.74,53.02,52.74,52.66-24.02,52.66-52.74c.04-28.72-21.49-52.74-52.66-52.74Z"/><path class="cls-4" d="m1119.5,247.78c0-52.03,40.49-94.35,97.44-94.35s96.73,42.3,96.73,94.35-40.15,94.35-96.73,94.35-97.44-42.32-97.44-94.35Zm150.1,0c0-28.7-21.85-52.74-52.66-52.74s-53.39,24.02-53.39,52.74,22.24,52.74,53.39,52.74c30.83-.02,52.66-24.04,52.66-52.74Z"/><path class="cls-4" d="m600.02,342.6c-58.59,0-100.2-39.54-100.2-95s41.61-94.66,100.2-94.66c36.05,0,64.82,14.91,79.04,42.99l-33.28,19.41c-11.09-17.69-27.74-25.65-46.12-25.65-31.9,0-56.17,22.2-56.17,57.9s24.27,57.9,56.17,57.9c18.38,0,35.01-7.98,46.12-25.65l33.28,19.41c-14.22,27.74-42.99,43.34-79.04,43.34Z"/><path class="cls-4" d="m1435.08,154.42c43.66,0,76.05,24.9,76.05,79.81v104.36h-42.63v-98.9c0-32.39-16.02-48.09-43.32-48.09-30.36,0-50.81,18.42-50.81,54.91v92.08h-42.63v-181.39h38.95l1.62,22.81c13.99-16.71,36.15-25.59,62.75-25.59h0Z"/><circle class="cls-4" cx="782.81" cy="325.43" r="25.1"/><circle class="cls-4" cx="860.47" cy="247.76" r="25.1"/><circle class="cls-4" cx="705.15" cy="247.76" r="25.1"/><circle class="cls-4" cx="782.81" cy="170.1" r="25.1"/><circle class="cls-4" cx="727.9" cy="302.69" r="25.1"/><circle class="cls-4" cx="837.72" cy="192.84" r="25.1"/><circle class="cls-4" cx="727.9" cy="192.84" r="25.1"/><circle class="cls-4" cx="837.72" cy="302.69" r="25.1"/></g></svg>