<?xml version="1.0" encoding="UTF-8"?>
<svg id="Layer_2" xmlns="http://www.w3.org/2000/svg" version="1.1" viewBox="0 0 758.8 140.8">
  <!-- Generator: Adobe Illustrator 29.5.1, SVG Export Plug-In . SVG Version: 2.1.0 Build 141)  -->
  <defs>
    <style>
      .st0 {
        fill: none;
        stroke: #f8faf9;
        stroke-miterlimit: 10;
      }

      .st1 {
        fill: #f8faf9;
      }
    </style>
  </defs>
  <path class="st1" d="M225.4,117h-15.7l-.9-12.7c-3.6,7.8-12.7,14.1-24.5,14.1-19.6,0-34.1-16-34.1-35.6s14.5-35.6,34.1-35.6,20.8,6.2,24.5,14.1v-31.4h16.6v87.2h0ZM187.1,62.9c-11.6,0-20,9.1-20,19.9s8.4,19.9,20,19.9,19.9-9.1,19.9-19.9c0-10.8-8.1-19.9-19.9-19.9Z"/>
  <path class="st1" d="M233.8,82.4c0-19.6,15.3-35.6,36.8-35.6s36.5,16,36.5,35.6-15.1,35.6-36.5,35.6-36.8-16-36.8-35.6ZM290.5,82.4c0-10.8-8.2-19.9-19.9-19.9s-20.1,9.1-20.1,19.9,8.4,19.9,20.1,19.9,19.9-9.1,19.9-19.9Z"/>
  <path class="st1" d="M37.8,118.2C15.7,118.2,0,103.2,0,82.3s15.7-35.7,37.8-35.7,24.5,5.6,29.8,16.2l-12.6,7.3c-4.2-6.7-10.5-9.7-17.4-9.7-12,0-21.2,8.4-21.2,21.8s9.2,21.8,21.2,21.8,13.2-3,17.4-9.7l12.6,7.3c-5.4,10.5-16.2,16.3-29.8,16.3Z"/>
  <path class="st1" d="M352.9,47.2c16.5,0,28.7,9.4,28.7,30.1v39.4h-16.1v-37.3c0-12.2-6-18.2-16.4-18.2s-19.2,6.9-19.2,20.7v34.7h-16.1V48.2h14.7l.6,8.6c5.3-6.3,13.6-9.7,23.7-9.7h0Z"/>
  <circle class="st1" cx="106.8" cy="111.7" r="9.5"/>
  <circle class="st1" cx="136.1" cy="82.4" r="9.5"/>
  <circle class="st1" cx="77.5" cy="82.4" r="9.5"/>
  <circle class="st1" cx="106.8" cy="53.1" r="9.5"/>
  <circle class="st1" cx="86.1" cy="103.1" r="9.5"/>
  <circle class="st1" cx="127.5" cy="61.7" r="9.5"/>
  <circle class="st1" cx="86.1" cy="61.7" r="9.5"/>
  <circle class="st1" cx="127.5" cy="103.1" r="9.5"/>
  <line class="st0" x1="417.1" y1="140.8" x2="417.1" y2="10.2"/>
  <path class="st1" d="M756.3,104.7c-9-22.4-19.4-28.2-19.4-39.4v-13.1h2.2c1.2,0,2.2-1,2.2-2.2v-4.4c0-1.2-1-2.2-2.2-2.2h-21.9c-1.2,0-2.2,1-2.2,2.2v4.4c0,1.2,1,2.2,2.2,2.2h2.2v13.1c0,11.2-10.5,17-19.4,39.4-2.8,7.1-10.2,17.5,28.2,17.5s31-10.4,28.2-17.5h0ZM749.2,112.4c-3.1.9-9.2,2-21.1,2s-18-1.1-21.1-2c-1.1-.3-1.5-1.6-1.1-2.8,1-2.9,2.8-8,6.2-13.7,8.3-13.8,16.9,2.2,24.1,2.2s5.2-6.8,8-2.2c2.6,4.3,4.6,8.9,6.2,13.7.4,1.2,0,2.4-1.1,2.8h0Z"/>
  <circle class="st1" cx="728.2" cy="34.2" r="4.8"/>
  <circle class="st1" cx="742.9" cy="19.5" r="4.8"/>
  <circle class="st1" cx="713.5" cy="19.5" r="4.8"/>
  <circle class="st1" cx="728.2" cy="4.8" r="4.8"/>
  <circle class="st1" cx="717.8" cy="29.9" r="4.8"/>
  <circle class="st1" cx="738.6" cy="9.1" r="4.8"/>
  <circle class="st1" cx="717.8" cy="9.1" r="4.8"/>
  <circle class="st1" cx="738.6" cy="29.9" r="4.8"/>
  <path class="st1" d="M453.3,116.7V38.3h9v70.1h32.8v8.3s-41.9,0-41.9,0Z"/>
  <path class="st1" d="M530.1,118.1c-5.5,0-10-.6-13.2-1.8-3.3-1.2-5.6-3.2-7.1-5.9s-2.2-6.3-2.2-10.9.7-8.9,2.2-11.8c1.4-2.8,3.8-4.8,7.1-5.9s7.7-1.7,13.2-1.7h13.4v-3.7c0-3.1-.4-5.6-1.2-7.5-.8-1.9-2.1-3.2-4.1-3.9s-4.7-1.1-8.2-1.1-4.9.3-6.5.8c-1.6.6-2.8,1.6-3.7,3.1-.9,1.5-1.7,3.6-2.5,6.3l-8.6-2.2c1.1-4.1,2.5-7.4,4.2-9.9,1.7-2.5,3.9-4.3,6.6-5.5,2.7-1.2,6.2-1.8,10.5-1.8s10.1.8,13.3,2.3c3.3,1.5,5.6,3.9,7,7.1,1.4,3.2,2.1,7.3,2.1,12.2v24c0,2.5.2,4.3.6,5.4s1.1,1.9,2.2,2.2c1.1.3,2.7.4,4.8.3v8.2c-3.7.2-6.7-.1-8.8-.9s-3.7-2.3-4.8-4.5c-1.2,1.7-2.5,3.1-4.1,4.1-1.5,1-3.3,1.7-5.3,2.2-2,.4-4.4.6-7.2.6h0ZM530.1,109.8c3.5,0,6.2-.4,8.2-1.3s3.3-2.4,4.1-4.6c.8-2.2,1.2-5.2,1.2-9.1v-6.4h-13.4c-3.5,0-6.3.3-8.2.8-2,.5-3.3,1.6-4.1,3.1s-1.1,3.9-1.1,7.2.4,4.7,1.1,6.2,2.1,2.6,4.1,3.2c2,.6,4.7.9,8.2.9Z"/>
  <path class="st1" d="M591.7,118.1c-3.7,0-6.8-.3-9.5-.9s-5-1.6-7.1-3c-2-1.4-4-3.3-6-5.7V38.3h9v20.9c1.6-1.6,3.5-2.7,5.7-3.4,2.2-.7,4.8-1,7.8-1,5.7,0,10.1,1,13.4,3.1s5.5,5.4,7,10.1c1.4,4.7,2.1,10.9,2.1,18.6s-.7,13.8-2.1,18.4c-1.4,4.6-3.7,8-7,10-3.2,2.1-7.7,3.1-13.4,3.1h0ZM591.7,109.8c3.4,0,6.1-.7,8-2.1,2-1.4,3.3-3.8,4.2-7.2s1.2-8,1.2-14-.4-10.7-1.2-14.1-2.2-5.8-4.2-7.2c-2-1.4-4.6-2.1-8-2.1s-6.3.4-8.2,1.3c-2,.8-3.3,2.3-4.1,4.5-.8,2.1-1.2,5.2-1.2,9.2v27.5c1.8,1.6,3.6,2.7,5.5,3.3,1.9.6,4.6.9,8,.9Z"/>
  <path class="st1" d="M646.8,118.1c-3.5,0-6.4-.4-8.8-1.1-2.4-.8-4.5-2-6.3-3.8-1.8-1.8-3.5-4.2-5-7.2l7.2-5.8c1.1,2.5,2.2,4.4,3.3,5.9,1.1,1.4,2.4,2.4,3.9,2.9,1.5.5,3.4.8,5.8.8,4.6,0,8.2-.3,10.7-.9s4.2-1.7,5.2-3.2c1-1.5,1.5-3.5,1.5-6.1s-.4-4.5-1.2-5.8c-.8-1.3-2.3-2.3-4.4-3-2.1-.7-5.2-1.3-9.1-1.7-5-.7-9.1-1.6-12.3-2.8s-5.5-3-7-5.2c-1.5-2.2-2.2-5.1-2.2-8.5s.8-7.8,2.3-10.4c1.5-2.6,4-4.4,7.5-5.6,3.5-1.1,8.1-1.7,13.9-1.7s6.7.3,9.2,1c2.5.7,4.6,1.7,6.5,3.2s3.6,3.6,5.1,6.2l-6.6,6.4c-1.2-2.3-2.5-4-3.6-5.2s-2.6-2-4.2-2.5c-1.6-.5-3.7-.7-6.4-.7-3.9,0-6.9.3-9,.8-2.2.6-3.6,1.5-4.5,2.9s-1.2,3.3-1.2,5.7,1,4.3,2.9,5.4,5.3,2,10.1,2.7c5.8.8,10.3,1.8,13.7,3.2,3.4,1.3,5.8,3.2,7.2,5.7s2.2,5.8,2.2,10-.8,8.1-2.5,10.8-4.5,4.7-8.3,5.9-9,1.8-15.5,1.8h0Z"/>
</svg>